<?xml version="1.0" encoding="UTF-8" standalone="no"?>
<!DOCTYPE svg PUBLIC "-//W3C//DTD SVG 1.1//EN" "http://www.w3.org/Graphics/SVG/1.1/DTD/svg11.dtd">
<svg width="100%" height="100%" viewBox="0 0 3544 3544" version="1.1" xmlns="http://www.w3.org/2000/svg" xmlns:xlink="http://www.w3.org/1999/xlink" xml:space="preserve" xmlns:serif="http://www.serif.com/" style="fill-rule:evenodd;clip-rule:evenodd;stroke-linecap:round;stroke-linejoin:round;stroke-miterlimit:1.5;">
    <g transform="matrix(3.00087,0,0,6.14453,-1166.02,-6531.48)">
        <path d="M1523.37,1124.87L1523.37,1596.47C1523.37,1610.63 1499.84,1622.13 1470.85,1622.13L525.415,1622.13C496.426,1622.13 472.891,1610.63 472.891,1596.47L472.891,1124.87C472.891,1110.71 496.426,1099.21 525.415,1099.21L1470.85,1099.21C1499.84,1099.21 1523.37,1110.71 1523.37,1124.87Z" style="stroke:black;stroke-width:16.37px;"/>
    </g>
    <g transform="matrix(3.00087,0,0,6.14453,-1281.2,-6646.58)">
        <path d="M1523.37,1124.87L1523.37,1596.47C1523.37,1610.63 1499.84,1622.13 1470.85,1622.13L525.415,1622.13C496.426,1622.13 472.891,1610.63 472.891,1596.47L472.891,1124.87C472.891,1110.71 496.426,1099.21 525.415,1099.21L1470.85,1099.21C1499.84,1099.21 1523.37,1110.71 1523.37,1124.87Z" style="fill:rgb(255,245,159);stroke:black;stroke-width:16.37px;stroke-linecap:square;"/>
    </g>
    <g transform="matrix(1.78932,0,0,1.82376,-1236.06,123.091)">
        <g transform="matrix(833.333,0,0,833.333,896.242,1543.82)">
            <path d="M0.066,-0L0.066,-0.73L0.3,-0.73C0.352,-0.73 0.397,-0.721 0.435,-0.703C0.473,-0.685 0.502,-0.659 0.524,-0.626C0.545,-0.593 0.555,-0.553 0.555,-0.508C0.555,-0.461 0.544,-0.418 0.521,-0.381C0.498,-0.344 0.466,-0.317 0.427,-0.3L0.565,-0L0.402,-0L0.284,-0.276L0.214,-0.276L0.214,-0L0.066,-0ZM0.214,-0.406L0.3,-0.406C0.333,-0.406 0.359,-0.414 0.378,-0.431C0.396,-0.448 0.405,-0.471 0.405,-0.501C0.405,-0.532 0.396,-0.557 0.378,-0.574C0.359,-0.591 0.333,-0.6 0.3,-0.6L0.214,-0.6L0.214,-0.406Z" style="fill-rule:nonzero;"/>
        </g>
        <g transform="matrix(833.333,0,0,833.333,1396.24,1543.82)">
            <path d="M0.025,-0L0.204,-0.73L0.394,-0.73L0.575,-0L0.422,-0L0.387,-0.165L0.213,-0.165L0.178,-0L0.025,-0ZM0.238,-0.285L0.361,-0.285L0.326,-0.461C0.321,-0.486 0.317,-0.511 0.312,-0.537C0.307,-0.562 0.303,-0.581 0.3,-0.595C0.297,-0.581 0.294,-0.562 0.29,-0.537C0.285,-0.512 0.28,-0.487 0.275,-0.462L0.238,-0.285Z" style="fill-rule:nonzero;"/>
        </g>
        <g transform="matrix(833.333,0,0,833.333,1896.24,1543.82)">
            <path d="M0.305,0.01C0.256,0.01 0.213,0.001 0.176,-0.018C0.139,-0.036 0.111,-0.062 0.091,-0.095C0.07,-0.128 0.06,-0.166 0.06,-0.21L0.06,-0.52C0.06,-0.565 0.07,-0.603 0.091,-0.636C0.111,-0.669 0.139,-0.694 0.176,-0.713C0.213,-0.731 0.256,-0.74 0.305,-0.74C0.354,-0.74 0.396,-0.731 0.433,-0.713C0.469,-0.694 0.497,-0.669 0.518,-0.636C0.538,-0.604 0.548,-0.565 0.548,-0.52L0.398,-0.52C0.398,-0.549 0.39,-0.572 0.373,-0.587C0.357,-0.602 0.334,-0.61 0.304,-0.61C0.274,-0.61 0.251,-0.602 0.235,-0.587C0.218,-0.571 0.21,-0.549 0.21,-0.52L0.21,-0.21C0.21,-0.181 0.218,-0.159 0.235,-0.144C0.251,-0.128 0.274,-0.12 0.304,-0.12C0.334,-0.12 0.357,-0.128 0.373,-0.144C0.39,-0.159 0.398,-0.181 0.398,-0.21L0.398,-0.278L0.29,-0.278L0.29,-0.405L0.548,-0.405L0.548,-0.21C0.548,-0.166 0.538,-0.127 0.518,-0.094C0.497,-0.061 0.469,-0.036 0.433,-0.018C0.396,0.001 0.354,0.01 0.305,0.01Z" style="fill-rule:nonzero;"/>
        </g>
    </g>
    <g transform="matrix(1.78932,0,0,1.82376,-1236.06,-1211.92)">
        <g transform="matrix(833.333,0,0,833.333,896.242,1543.82)">
            <path d="M0.066,-0L0.066,-0.73L0.315,-0.73C0.366,-0.73 0.411,-0.72 0.449,-0.701C0.488,-0.682 0.517,-0.655 0.538,-0.62C0.559,-0.585 0.57,-0.545 0.57,-0.498C0.57,-0.452 0.559,-0.411 0.538,-0.377C0.517,-0.341 0.487,-0.314 0.449,-0.295C0.411,-0.276 0.367,-0.266 0.315,-0.266L0.216,-0.266L0.216,-0L0.066,-0ZM0.216,-0.396L0.315,-0.396C0.347,-0.396 0.372,-0.406 0.391,-0.425C0.41,-0.444 0.42,-0.469 0.42,-0.498C0.42,-0.527 0.41,-0.552 0.391,-0.571C0.372,-0.59 0.347,-0.6 0.315,-0.6L0.216,-0.6L0.216,-0.396Z" style="fill-rule:nonzero;"/>
        </g>
        <g transform="matrix(833.333,0,0,833.333,1396.24,1543.82)">
            <path d="M0.063,-0L0.063,-0.73L0.3,-0.73C0.351,-0.73 0.395,-0.72 0.433,-0.701C0.47,-0.682 0.5,-0.655 0.521,-0.62C0.542,-0.585 0.552,-0.543 0.552,-0.496L0.552,-0.235C0.552,-0.188 0.542,-0.147 0.521,-0.112C0.5,-0.077 0.47,-0.049 0.433,-0.03C0.395,-0.01 0.351,-0 0.3,-0L0.063,-0ZM0.213,-0.135L0.3,-0.135C0.33,-0.135 0.355,-0.144 0.374,-0.163C0.393,-0.182 0.402,-0.206 0.402,-0.235L0.402,-0.496C0.402,-0.525 0.393,-0.549 0.374,-0.568C0.355,-0.586 0.33,-0.595 0.3,-0.595L0.213,-0.595L0.213,-0.135Z" style="fill-rule:nonzero;"/>
        </g>
        <g transform="matrix(833.333,0,0,833.333,1896.24,1543.82)">
            <path d="M0.07,-0L0.07,-0.73L0.54,-0.73L0.54,-0.59L0.218,-0.59L0.218,-0.428L0.514,-0.428L0.514,-0.288L0.22,-0.288L0.22,-0L0.07,-0Z" style="fill-rule:nonzero;"/>
        </g>
    </g>
</svg>
